# xmcd
#
# Track frame offsets:
# 150
# 19100
# 34022
# 50902
# 64579
#
# Disc length: 1021 seconds
#
#
# Revision: 0
# Processed by: cddbd v1.5.1PL0 Copyright (c) Steve Scherf et al.
# Submitted via: FreeRIP 2.941 
#
DISCID=3d03fb05
DTITLE=Layla Zoe - You Will
DYEAR=2005
DGENRE=Blues
TTITLE0=You Will
TTITLE1=Sometimes I Cry
TTITLE2=Everytime Love Walks Away
TTITLE3=Jungle Room
TTITLE4=What The Body Remembers
EXTD=As heard on BluesfestRadio.com
EXTT0=
EXTT1=
EXTT2=
EXTT3=
EXTT4=
PLAYORDER=
